<svg width="1200" height="280" viewBox="0 0 1200 280" fill="none" xmlns="http://www.w3.org/2000/svg">
  <rect width="1200" height="280" rx="16" fill="#0A0A0A"/>
  <rect x="0.5" y="0.5" width="1199" height="279" rx="15.5" stroke="#262626"/>

  <g stroke="#1A1A1A" stroke-width="1">
    <line x1="120" y1="0" x2="120" y2="280"/>
    <line x1="1080" y1="0" x2="1080" y2="280"/>
    <line x1="0" y1="48" x2="1200" y2="48"/>
    <line x1="0" y1="232" x2="1200" y2="232"/>
  </g>

  <g transform="translate(420, 92)">
    <rect x="0" y="0" width="96" height="96" rx="20" fill="#FFFFFF"/>
    <g transform="translate(20, 20)" fill="none" stroke="#0A0A0A" stroke-width="4" stroke-linecap="round" stroke-linejoin="round">
      <ellipse cx="28" cy="12" rx="24" ry="8"/>
      <path d="M4 12v32c0 4.42 10.7 8 24 8s24-3.58 24-8V12"/>
      <path d="M4 28c0 4.42 10.7 8 24 8s24-3.58 24-8"/>
    </g>
  </g>

  <text x="548" y="152" font-family="'Segoe UI', 'Helvetica Neue', Arial, sans-serif" font-size="58" font-weight="700" fill="#FFFFFF" letter-spacing="-1">MakeADB</text>
  <text x="551" y="192" font-family="'Segoe UI', 'Helvetica Neue', Arial, sans-serif" font-size="19" font-weight="400" fill="#8A8A8A" letter-spacing="0.5">Self-hosted databases on demand</text>
</svg>
